<?xml version="1.0" encoding="UTF-8" standalone="no"?>
<!-- Created with Inkscape (http://www.inkscape.org/) -->

<svg
   width="207.48088mm"
   height="44.553871mm"
   viewBox="0 0 207.48088 44.553871"
   version="1.1"
   id="svg5"
   xmlns="http://www.w3.org/2000/svg"
   xmlns:svg="http://www.w3.org/2000/svg">
  <defs
     id="defs2" />
  <g
     id="layer1"
     transform="translate(-1.1441162,-68.954964)">
    <path
       id="path106453"
       style="font-weight:900;font-size:48.389px;line-height:1.25;font-family:Montserrat;-inkscape-font-specification:'Montserrat Heavy';letter-spacing:0px;word-spacing:0px;fill:#edf0f1;stroke-width:0.952539"
       d="m 654.7207,260.61719 -61.74804,168.39258 h 37.42187 l 61.74805,-168.39258 z m -335.67773,3.7539 c -7.73391,0 -13.90804,1.96573 -18.52344,5.89844 -4.6154,3.93271 -6.92383,8.81872 -6.92383,14.6582 0,5.83949 2.30843,10.7255 6.92383,14.65821 4.6154,3.93271 10.78953,5.90039 18.52344,5.90039 7.73391,0 13.90804,-1.96768 18.52344,-5.90039 4.6154,-4.05189 6.92382,-9.17605 6.92382,-15.37305 0,-5.83948 -2.30842,-10.60642 -6.92382,-14.30078 -4.6154,-3.69437 -10.78953,-5.54102 -18.52344,-5.54102 z m 39.85547,14.12305 v 132.63867 h 42.28711 V 388.02539 L 408,381.11328 l 24.80664,30.01953 h 51.08008 l -45.6543,-55.44336 42.28711,-42.33789 h -49.95898 l -29.375,28.36133 v -63.21875 z m -238.19141,7.50781 v 125.13086 h 40.22852 v -55.09765 l 28.43945,43.83593 h 19.46094 l 28.49609,-45.8125 0.31836,57.07422 h 40.22852 l -0.37305,-125.13086 h -36.30078 l -41.49024,66.59571 -42.70898,-66.59571 z M 99.75,299.58594 4.3242188,332.6582 v 31.81836 L 99.75,397.54688 V 367.1582 L 43.023438,348.56641 99.75,329.97656 Z m 593.32617,0 v 30.39062 l 56.72656,18.58985 -56.72656,18.59179 v 30.38868 l 95.42774,-33.07032 V 332.6582 Z m -152.86914,11.97851 c -10.97716,0 -20.89341,2.14532 -29.75,6.43555 -8.73184,4.29023 -15.65517,10.24792 -20.76953,17.875 -4.98963,7.62708 -7.48438,16.38598 -7.48438,26.27734 0,9.65302 2.5575,18.35334 7.67188,26.09961 5.11436,7.62706 12.28679,13.64527 21.51758,18.05469 9.35554,4.40937 20.27009,6.61328 32.74414,6.61328 10.22874,0 18.96036,-1.30983 26.19531,-3.93164 7.3597,-2.74096 13.53579,-6.67439 18.52539,-11.79883 l -22.08008,-21.27148 c -3.36801,2.38345 -6.61195,4.16959 -9.73046,5.36133 -2.99377,1.19173 -6.85946,1.78906 -11.59961,1.78906 -4.61539,0 -8.5458,-0.71641 -11.78907,-2.14648 -3.24323,-1.54928 -5.73798,-3.81367 -7.48437,-6.79297 -0.464,-0.7916 -0.86241,-1.62624 -1.20313,-2.50196 h 70.9961 c 0.12472,-1.43008 0.25027,-2.98002 0.375,-4.64843 0.12472,-1.7876 0.18554,-3.3961 0.18554,-4.82618 0,-11.08309 -2.61831,-20.37881 -7.85742,-27.88672 -5.11438,-7.5079 -11.97494,-13.16888 -20.58203,-16.98242 -8.48234,-3.81354 -17.77687,-5.71875 -27.88086,-5.71875 z m -242.30664,1.78711 v 97.78125 h 42.28711 v -97.78125 z m 242.68164,25.74024 c 3.49274,0 6.48565,0.77496 8.98047,2.32422 2.49482,1.43007 4.42864,3.51683 5.80078,6.25781 0.76206,1.33474 1.32707,2.82514 1.70117,4.46875 h -33.00976 c 0.34292,-1.64357 0.86006,-3.13404 1.55859,-4.46875 1.37215,-2.74098 3.30597,-4.82774 5.80078,-6.25781 2.61952,-1.54926 5.67521,-2.32422 9.16797,-2.32422 z"
       transform="scale(0.26458333)" />
  </g>
</svg>
